<svg width="391" height="391" viewBox="0 0 391 391" fill="none" xmlns="http://www.w3.org/2000/svg">
<mask id="mask0_59_78" style="mask-type:alpha" maskUnits="userSpaceOnUse" x="0" y="0" width="391" height="391">
<circle cx="195.5" cy="195.5" r="195.5" fill="#C4C4C4"/>
</mask>
<g mask="url(#mask0_59_78)">
<circle cx="195.5" cy="195.5" r="188.5" fill="#F9F9F9" stroke="white" stroke-width="14"/>
<path d="M407.934 437.765C407.72 441.891 406.664 446.917 402.71 448.117C401.372 448.524 399.908 448.394 398.592 448.861C394.964 450.187 394.08 455.474 390.462 456.828C387.698 457.862 384.708 456.118 381.759 456.082C375.596 456.007 371.794 462.99 366.029 465.169C364.39 465.785 362.645 466.068 360.895 466C359.147 465.932 357.428 465.514 355.843 464.771C354.258 464.028 352.837 462.975 351.666 461.674C350.495 460.372 349.595 458.85 349.022 457.196C347.853 454.114 347.917 445.826 348.224 436.66C348.881 416.867 351.887 383.494 342.42 367.606C342.42 367.542 377.161 363.612 379.963 363.576C391.042 363.433 394.646 362.512 398.568 373.525C405.866 394.119 409.048 415.945 407.934 437.765Z" fill="#9000A6"/>
<path d="M402.881 448.225C401.543 448.628 400.076 448.501 398.763 448.968C395.135 450.291 394.248 455.581 390.631 456.935C387.867 457.968 384.876 456.224 381.93 456.189C375.765 456.111 371.965 463.098 366.197 465.276C364.796 465.796 363.301 466.016 361.809 465.922C368.679 456.548 380.662 446.503 379.076 435.022C378.471 430.65 376.666 425.919 378.821 422.066C379.885 416.397 380.484 410.648 380.612 404.88C379.999 391.438 378.777 373.099 371.445 363.327C369.591 360.854 375.822 366.579 374.529 363.747L380.128 363.68C391.208 363.537 394.814 362.616 398.733 373.629C406.033 394.218 409.217 416.041 408.105 437.858C407.891 441.998 406.835 447.025 402.881 448.225Z" fill="#730085"/>
<path d="M360.678 454.896C359.513 451.812 359.573 443.524 359.88 434.357C360.532 414.752 363.472 381.848 354.334 365.771C350.538 366.204 342.417 367.586 342.417 367.605C351.888 383.493 348.881 416.867 348.22 436.659C347.913 445.826 347.85 454.114 349.018 457.196C349.593 458.85 350.491 460.372 351.663 461.674C352.835 462.974 354.255 464.028 355.84 464.771C357.426 465.514 359.143 465.932 360.893 466C362.643 466.068 364.388 465.785 366.026 465.169C366.335 465.052 366.639 464.915 366.938 464.77C362.016 464.554 362.795 460.484 360.678 454.896Z" fill="#670082"/>
<path d="M363.186 284.971C372.858 299.054 381.149 314.038 387.944 329.714C389.978 334.826 393.443 340.105 394.667 348.658C396.53 361.716 403.835 376.77 397.721 376.77C386.706 376.77 345.766 387.16 345.766 387.16L340.267 370.049C340.267 370.049 332.933 361.481 331.1 354.16C328.729 344.67 321.168 343.197 318.293 333.845C310.996 310.079 306.282 285.595 304.236 260.818C303.597 253.079 302.922 241.384 310.102 236.066C317.233 230.788 324.087 238.856 329.37 243.565C342.763 255.489 353.189 270.2 363.186 284.971Z" fill="black"/>
<path d="M64.0545 234.992C70.1012 244.925 85.0963 250.15 96.2582 253.414C102.12 255.125 108.372 253.968 114.432 253.244C134.725 250.779 155.253 253.097 175.696 253.19C197.799 252.892 219.862 251.174 241.744 248.045C265.47 245.082 305.44 253.327 322.549 236.825C337.92 222.003 338.918 191.389 309.105 186.105C300.089 184.448 290.942 183.615 281.775 183.618C259.158 184.364 236.599 186.265 214.049 188.166L137.204 194.647C124.657 195.705 111.829 197.687 99.2404 197.78C93.2355 197.825 82.7942 193.282 76.8138 195.036C57.3305 200.771 55.4985 220.937 64.0545 234.992Z" fill="black"/>
<path d="M76.819 206.116C82.7994 204.36 93.2401 208.904 99.245 208.86C111.833 208.769 124.67 206.785 137.209 205.726L214.053 199.246C236.604 197.344 259.163 195.443 281.78 194.697C290.946 194.691 300.094 195.518 309.11 197.167C323.508 199.721 330.705 208.186 332.584 217.922C335.071 204.165 328.825 189.598 309.11 186.105C300.094 184.448 290.946 183.615 281.78 183.618C259.163 184.364 236.604 186.265 214.053 188.166L137.209 194.647C124.662 195.705 111.833 197.687 99.245 197.78C93.2401 197.825 82.7994 193.282 76.819 195.036C62.125 199.35 57.4738 211.878 59.7373 223.806C60.6061 219.537 62.6748 215.606 65.7005 212.472C68.7264 209.338 72.5836 207.134 76.819 206.116Z" fill="#424248"/>
<path d="M68.145 394.363C68.8276 383.054 79.0087 270.4 80.6088 231.364C81.6037 207.045 90.8009 169.62 97.4479 140.881C112.849 74.2788 139.777 69.0888 197.34 67.8894C265.772 66.4607 291.83 83.3931 301.749 160.436C303.614 174.915 309.931 214.365 311.609 231.364C313.712 252.694 327.107 326.003 328.442 390.546C329.271 430.046 340.447 507.248 275.358 538.108C251.141 549.591 218.484 549.782 194.223 549.716C155.665 549.615 128.989 543.464 120.46 539.935C120.46 539.927 61.8302 498.785 68.145 394.363Z" fill="#26C9DA"/>
<path d="M329.052 392.986C327.718 328.446 314.326 255.135 312.219 233.804C310.544 216.804 304.224 177.357 302.361 162.879C293.924 97.3485 279.424 89.6933 263.722 80.4242C270.165 112.656 264.274 106.455 271.221 160.433C273.087 174.911 280.145 238.811 282.224 255.776C285.887 285.72 305.106 325.397 306.44 389.938C307.27 429.435 318.449 506.639 253.36 537.499C229.14 548.982 196.483 549.173 172.221 549.107C160.891 549.079 150.608 548.526 141.49 547.673C159.104 550.726 176.951 552.229 194.827 552.163C219.089 552.224 251.757 552.036 275.967 540.555C341.057 509.687 329.881 432.486 329.052 392.986Z" fill="#0BB2CA"/>
<path d="M98.7009 394.492C99.3835 383.183 102.151 324.751 103.751 285.715C104.745 261.395 109.457 202.62 116.101 173.881C131.505 107.278 154.91 94.4774 189.336 84.0477C209.51 77.9346 249.268 73.6511 249.268 73.6511C238.776 69.8753 227.734 67.8512 216.585 67.6596C213.239 67.5712 200.597 64.2107 196.991 64.2218C194.015 64.2218 200.113 67.5961 196.956 67.6624C194.885 67.7066 172.1 62.9643 170.102 63.0002C166.316 63.0748 183.411 67.9387 179.885 68.041C133.603 69.3509 109.805 78.9986 96.25 138.717C90.5824 163.694 81.2162 206.823 80.2213 231.137C78.6239 270.172 68.4428 382.828 67.7574 394.139C64.8916 441.556 74.6194 507.855 110.869 528.02C102.49 508.225 96.4937 430.983 98.7009 394.492Z" fill="#26E4EE"/>
<path d="M-13.9918 437.765C-13.779 441.891 -12.7233 446.917 -8.76866 448.117C-7.43105 448.524 -5.96362 448.394 -4.65085 448.861C-1.0223 450.187 -0.135147 455.474 3.48231 456.828C6.24588 457.862 9.23595 456.118 12.182 456.082C18.3475 456.007 22.1475 462.99 27.9151 465.169C29.5534 465.785 31.2989 466.068 33.0482 466C34.7976 465.931 36.5155 465.513 38.1007 464.77C39.6859 464.026 41.1062 462.974 42.2778 461.673C43.4494 460.372 44.3486 458.85 44.9223 457.196C46.0885 454.114 46.0276 445.826 45.7208 436.66C45.0604 416.867 42.0535 383.494 51.5243 367.606C51.5243 367.542 16.7833 363.612 13.981 363.576C2.90181 363.433 -0.701674 362.512 -4.62325 373.525C-11.9232 394.118 -15.1064 415.945 -13.9918 437.765Z" fill="#9000A6"/>
<path d="M50.9166 367.606C50.9166 367.588 42.3356 362.485 38.9972 362.103C30.3251 378.409 35.3326 410.993 36.7421 435.062C37.2782 444.218 37.1098 452.517 35.9435 455.598C33.4563 462.167 30.7839 464.911 25.0217 464.014C25.7439 464.468 26.5075 464.852 27.3019 465.163C28.9405 465.78 30.6858 466.063 32.4354 465.994C34.185 465.925 35.9032 465.508 37.4887 464.764C39.074 464.022 40.4946 462.968 41.6664 461.668C42.8383 460.366 43.7376 458.844 44.3116 457.19C45.4778 454.108 45.4172 445.82 45.1104 436.654C44.4499 416.867 41.4431 383.507 50.9166 367.606Z" fill="#670082"/>
<path d="M-8.93469 448.225C-7.59708 448.629 -6.12965 448.501 -4.81688 448.969C-1.18833 450.292 -0.303949 455.582 3.31628 456.936C6.07985 457.97 9.06749 456.226 12.0163 456.19C18.1818 456.112 21.9814 463.099 27.7463 465.276C29.1487 465.797 30.6451 466.018 32.1379 465.923C25.2676 456.549 18.1707 445.893 19.7598 434.418C20.3623 430.046 22.1667 425.315 20.0139 421.462C18.731 415.826 18.1299 410.056 18.2232 404.276C21.0808 393.027 19.3286 372.843 22.5012 363.333C23.4822 360.401 18.1237 366.586 19.4171 363.753L13.8153 363.687C2.73612 363.544 -0.86782 362.623 -4.7865 373.636C-12.0863 394.225 -15.2703 416.048 -14.1578 437.864C-13.9478 441.998 -12.8921 447.026 -8.93469 448.225Z" fill="#C41ACD"/>
<path d="M236.999 277.158C245.755 276.376 254.237 273.696 261.853 269.305C269.469 264.915 276.038 258.918 281.103 251.733C283.776 246.859 296.054 243.069 295.505 237.426C293.084 212.623 279.791 189.147 258.787 165.775C257.03 163.815 256.314 160.877 254.264 159.291C252.603 158.142 250.721 157.353 248.736 156.975C230.961 152.579 212.415 154.709 194.374 157.567C183.646 158.861 173.142 161.597 163.145 165.7C156.884 168.467 151.2 172.387 146.387 177.255C141.363 182.444 138.958 189.108 134.661 194.804C129.932 201.071 129.505 201.859 133.279 209.746C144.532 233.167 196.676 280.215 236.999 277.158Z" fill="#00A2BF"/>
<path d="M126.271 144.409C135.61 144.232 142.954 132.086 142.673 117.281C142.391 102.476 134.593 90.6183 125.253 90.7958C115.914 90.9732 108.57 103.119 108.851 117.924C109.133 132.729 116.931 144.587 126.271 144.409Z" fill="#18ACC8"/>
<path d="M125.909 147.078C135.248 146.902 142.591 134.759 142.313 119.957C142.033 105.155 134.237 93.2977 124.9 93.4737C115.562 93.6498 108.218 105.792 108.498 120.595C108.776 135.397 116.572 147.254 125.909 147.078Z" fill="#B6F7FA"/>
<path d="M126.292 138.651C133.558 138.478 139.245 129.809 138.995 119.289C138.745 108.768 132.652 100.379 125.386 100.552C118.12 100.724 112.432 109.393 112.682 119.914C112.932 130.435 119.026 138.824 126.292 138.651Z" fill="#453772"/>
<path d="M119.266 109.207C120.799 109.207 122.042 107.674 122.042 105.783C122.042 103.892 120.799 102.359 119.266 102.359C117.732 102.359 116.488 103.892 116.488 105.783C116.488 107.674 117.732 109.207 119.266 109.207Z" fill="white"/>
<path d="M126.748 135.193C129.994 134.741 132.308 132.098 131.917 129.291C131.525 126.484 128.577 124.575 125.332 125.027C122.086 125.479 119.772 128.122 120.163 130.929C120.555 133.736 123.502 135.645 126.748 135.193Z" fill="#5371A0"/>
<path d="M267.942 144.611C277.279 144.435 284.623 132.293 284.344 117.49C284.065 102.688 276.268 90.8309 266.931 91.007C257.593 91.183 250.25 103.325 250.529 118.128C250.808 132.93 258.604 144.787 267.942 144.611Z" fill="#00A2BF"/>
<path d="M268.343 147.08C277.68 146.904 285.023 134.762 284.745 119.959C284.465 105.157 276.669 93.2999 267.332 93.4759C257.994 93.6521 250.65 105.794 250.93 120.597C251.208 135.399 259.004 147.256 268.343 147.08Z" fill="#B6F7FA"/>
<path d="M267.59 138.662C274.775 138.497 280.403 129.834 280.162 119.313C279.919 108.792 273.897 100.397 266.712 100.563C259.527 100.728 253.898 109.391 254.141 119.912C254.383 130.433 260.404 138.828 267.59 138.662Z" fill="#453772"/>
<path d="M260.656 109.207C262.171 109.207 263.4 107.674 263.4 105.783C263.4 103.892 262.171 102.359 260.656 102.359C259.141 102.359 257.912 103.892 257.912 105.783C257.912 107.674 259.141 109.207 260.656 109.207Z" fill="white"/>
<path d="M268.132 135.146C271.338 134.662 273.593 131.998 273.169 129.195C272.747 126.393 269.805 124.513 266.6 124.997C263.394 125.482 261.139 128.146 261.562 130.949C261.986 133.751 264.927 135.631 268.132 135.146Z" fill="#5371A0"/>
<path d="M139.848 213.687C153.942 224.247 168.518 233.953 192.08 233.796C214.008 234.076 235.265 226.23 251.751 211.77C262.363 202.15 268.074 183.13 270.397 172.579C236.555 171.736 202.661 172.302 168.902 174.267C158.837 174.853 119.532 162.362 118.304 171.714C116.496 185.472 129.299 205.775 139.848 213.687Z" fill="#EF00C3"/>
<path d="M241.258 172.149C238.555 183.007 190.604 158.828 187.749 172.049C183.538 191.527 183.137 233.79 192.345 233.73C214.274 234.01 235.53 226.165 252.017 211.704C262.627 202.084 268.338 183.065 270.66 172.513C260.864 172.27 251.063 172.149 241.258 172.149Z" fill="#C100A6"/>
<path d="M77.5183 227.641C78.259 222.357 76.3855 217.614 79.6382 221.837C86.5472 230.83 103.957 239.767 115.998 245.974C133.446 254.977 145.346 260.648 156.333 266.148C170.055 273.217 182.229 282.95 192.146 294.778C192.705 295.469 193.411 296.028 194.211 296.414C195.012 296.8 195.889 297.004 196.777 297.012C197.665 297.02 198.545 296.832 199.352 296.46C200.16 296.088 200.875 295.542 201.446 294.862C211.235 283.709 222.593 274.037 235.162 266.148C263.593 248.887 301.764 230.703 312.775 215.729C315.704 211.741 317.254 218.785 317.541 223.728C317.58 224.393 317.619 224.91 317.662 225.202C320.702 245.311 320.736 242.373 323.774 262.481C328.677 294.917 337.219 360.864 336.608 420.149C336.826 428.586 335.87 437.013 333.767 445.187C333.622 445.628 333.53 446.085 333.491 446.547C333.283 449.134 332.553 458.024 331.738 464.286C331.579 465.534 331.032 466.7 330.175 467.621C329.318 468.542 328.193 469.171 326.96 469.418C303.92 474.006 242.557 474.498 198.492 473.926C163.3 473.47 93.984 474.478 73.3011 471.438C71.9055 471.232 70.6259 470.544 69.684 469.494C68.7422 468.444 68.1976 467.098 68.1444 465.687C67.7326 454.877 67.3458 447.36 67.1772 444.297C67.1311 443.427 66.8943 442.578 66.4836 441.81C65.4998 439.947 63.5319 434.804 62.2026 421.975C57.5321 376.663 69.8825 282.013 77.5183 227.641Z" fill="black"/>
<path d="M263.709 307.477C266.833 307.473 269.364 305.999 269.361 304.184C269.36 302.369 266.825 300.901 263.701 300.905C260.576 300.908 258.046 302.382 258.048 304.196C258.049 306.012 260.584 307.48 263.709 307.477Z" fill="#FFD55B"/>
<path d="M263.723 319.797C266.847 319.793 269.378 318.319 269.375 316.504C269.374 314.69 266.839 313.222 263.715 313.225C260.591 313.228 258.06 314.702 258.062 316.517C258.063 318.332 260.599 319.8 263.723 319.797Z" fill="#FFD55B"/>
<path d="M250.675 324.506C252.204 323.529 252.079 320.602 250.396 317.97C248.713 315.337 246.11 313.996 244.581 314.974C243.052 315.951 243.176 318.878 244.859 321.51C246.542 324.142 249.147 325.484 250.675 324.506Z" fill="#FF92B0"/>
<path d="M261.453 330.516C262.981 329.539 262.857 326.613 261.175 323.98C259.492 321.348 256.887 320.007 255.358 320.984C253.829 321.961 253.954 324.888 255.638 327.52C257.32 330.153 259.924 331.495 261.453 330.516Z" fill="#FF92B0"/>
<path d="M250.689 336.914C252.218 335.937 252.093 333.01 250.41 330.378C248.727 327.746 246.124 326.405 244.595 327.382C243.066 328.359 243.19 331.286 244.873 333.918C246.556 336.55 249.159 337.892 250.689 336.914Z" fill="#FF92B0"/>
<path d="M261.465 342.928C262.994 341.95 262.869 339.024 261.186 336.391C259.503 333.759 256.9 332.418 255.371 333.395C253.842 334.373 253.966 337.299 255.649 339.931C257.332 342.563 259.937 343.905 261.465 342.928Z" fill="#FF92B0"/>
<path d="M282.603 333.891C284.281 331.255 284.4 328.328 282.868 327.354C281.336 326.38 278.737 327.727 277.059 330.364C275.382 333 275.263 335.926 276.795 336.9C278.327 337.875 280.928 336.527 282.603 333.891Z" fill="#B14FBE"/>
<path d="M271.845 339.925C273.522 337.289 273.64 334.363 272.109 333.389C270.578 332.414 267.977 333.762 266.3 336.398C264.623 339.035 264.505 341.96 266.036 342.935C267.567 343.909 270.168 342.562 271.845 339.925Z" fill="#B14FBE"/>
<path d="M282.592 321.204C284.269 318.568 284.387 315.641 282.855 314.668C281.325 313.693 278.724 315.041 277.047 317.676C275.37 320.313 275.252 323.24 276.783 324.214C278.314 325.187 280.915 323.841 282.592 321.204Z" fill="#B14FBE"/>
<path d="M271.83 327.24C273.507 324.603 273.624 321.677 272.093 320.702C270.563 319.729 267.962 321.076 266.284 323.712C264.607 326.348 264.49 329.275 266.021 330.249C267.551 331.223 270.153 329.875 271.83 327.24Z" fill="#B14FBE"/>
<path d="M253.134 313.605C256.258 313.6 258.79 312.127 258.787 310.312C258.785 308.498 256.251 307.028 253.127 307.033C250.002 307.036 247.471 308.51 247.473 310.325C247.475 312.139 250.009 313.608 253.134 313.605Z" fill="#FFD55B"/>
<path d="M274.485 313.581C277.609 313.577 280.14 312.103 280.139 310.288C280.137 308.473 277.601 307.005 274.477 307.009C271.353 307.012 268.822 308.486 268.824 310.302C268.827 312.116 271.361 313.584 274.485 313.581Z" fill="#FFD55B"/>
<path d="M197.583 307.105L197.595 309.171" stroke="#74767A" stroke-width="2.992" stroke-miterlimit="10"/>
<path d="M197.616 313.342L198.476 469.785" stroke="#74767A" stroke-width="2.992" stroke-miterlimit="10" stroke-dasharray="1.51 1.51"/>
<path d="M140.605 183.047C140.605 183.047 156.587 220.936 197.276 219.715C197.276 219.715 241.625 218.493 247.239 181.826L173.726 162.882L140.605 183.047Z" fill="#6F0065"/>
<path d="M116.532 187.569C146.072 186.267 160.357 183.786 192.037 183.507C209.739 183.202 227.446 183.848 245.081 185.442C255.325 186.286 265.615 186.429 275.878 185.87C283.038 185.317 287.331 176.106 292.65 171.831C292.078 167.627 289.651 162.393 279.72 157.789C268.633 152.33 258.64 144.889 250.232 135.832C243.414 128.545 241.389 121.124 232.139 114.553C224.748 109.302 212.918 105.955 195.383 105.955C175.023 105.955 165.199 109.62 157.505 116.07C148.733 123.424 145.312 133.815 134.188 141.285C122.253 149.299 102.25 155.351 94.2276 168.677C90.8366 174.312 94.916 181.802 94.916 181.802C94.916 181.802 101.982 188.216 116.532 187.569Z" fill="#EF00C3"/>
<path d="M276.283 153.939C267.614 149.96 259.491 144.884 252.113 138.836C249.607 136.561 247.404 133.974 245.556 131.139C242.245 125.063 237.829 119.66 232.533 115.207C221.778 106.684 211.634 105.598 196.797 106.004C207.376 106.386 214.851 106.098 223.181 112.847C229.86 118.261 231.079 124.91 233.561 130.274C235.337 133.87 237.776 137.099 240.746 139.792C248.674 145.223 257.058 149.956 265.804 153.939C277.071 159.378 285.881 162.329 286.185 171.825C286.346 176.904 284.367 183.341 271.499 185.159C266.505 186.161 261.45 186.83 256.366 187.16C266.868 187.387 276.527 187.061 282.117 185.159C285.268 184.298 288.049 182.428 290.036 179.835C292.022 177.243 293.104 174.071 293.116 170.805C292.923 165.029 288.905 160.107 276.283 153.939Z" fill="#C100A6"/>
<path d="M279.813 182.633C268.002 185.498 240.053 183.081 222.33 182.533C209.447 182.136 187.495 181.428 160.605 183.086C140.581 184.307 120.885 185.819 108.398 185.529C98.1292 185.291 93.6027 179.601 92.8843 173.939C92.0712 180.848 96.2419 187.66 108.398 188.81C124.58 190.343 141.804 189.226 161.83 188.006C188.719 186.367 210.668 187.063 223.552 187.452C241.274 188.006 270.027 190.752 281.532 186.839C289.667 184.075 293.106 177.719 292.943 172.631C291.634 175.169 289.777 177.383 287.506 179.113C285.235 180.842 282.607 182.046 279.813 182.633Z" fill="#A1008B"/>
<path d="M30.7562 284.971C21.0845 299.055 12.7929 314.038 5.99697 329.714C3.96567 334.826 0.49744 340.105 -0.724088 348.658C-2.58953 361.716 -9.89086 376.77 -3.78057 376.77C7.2379 376.77 48.175 387.16 48.175 387.16L53.6772 370.049C53.6772 370.049 61.0092 361.481 62.8441 354.16C65.2153 344.67 72.7763 343.197 75.6476 333.845C82.9478 310.08 87.6622 285.595 89.7093 260.818C90.3468 253.079 91.0214 241.384 83.8419 236.066C76.7118 230.788 69.8581 238.856 64.5741 243.565C51.1817 255.489 40.7548 270.2 30.7562 284.971Z" fill="black"/>
<path d="M9.75003 351.884C10.9742 343.316 14.4481 338.049 16.4737 332.94C23.2686 317.263 31.5599 302.278 41.2327 288.194C51.2286 273.433 61.6557 258.712 75.0371 246.787C78.2428 243.932 67.2078 239.211 67.2078 239.211C67.2078 239.211 40.7548 270.212 30.7562 284.971C21.0845 299.055 12.7929 314.039 5.99697 329.714C3.96567 334.827 0.49744 340.105 -0.724088 348.658C-2.58953 361.717 -9.89086 376.77 -3.78057 376.77C-1.04772 376.863 1.67531 377.146 4.36923 377.615C3.77787 372.873 8.33226 361.81 9.75003 351.884Z" fill="#424248"/>
<path d="M384.451 351.883C383.229 343.315 379.753 338.048 377.727 332.939C370.932 317.262 362.64 302.277 352.968 288.193C342.972 273.433 332.546 258.711 319.164 246.786C315.959 243.932 322.184 237.287 322.184 237.287C322.184 237.287 352.117 266.305 362.113 281.065C372.241 296.469 380.973 312.747 388.204 329.705C390.236 334.818 393.703 340.096 394.925 348.649C396.79 361.707 404.092 376.76 397.981 376.76C395.25 376.854 392.527 377.137 389.835 377.606C390.403 372.871 385.869 361.809 384.451 351.883Z" fill="#424248"/>
<path d="M192.807 295.373C192.807 295.373 169.842 320.149 172.26 324.985L184.951 331.632C184.951 331.632 192.807 332.237 201.871 299L192.807 295.373Z" fill="#424248"/>
<circle cx="195.5" cy="195.5" r="188.5" stroke="white" stroke-width="14"/>
</g>
</svg>
